<?xml version="1.0" encoding="utf-8"?>
<!-- Generator: Adobe Illustrator 21.1.0, SVG Export Plug-In . SVG Version: 6.00 Build 0)  -->
<svg version="1.1" id="Layer_1" xmlns="http://www.w3.org/2000/svg" xmlns:xlink="http://www.w3.org/1999/xlink" x="0px" y="0px"
	 viewBox="0 0 216 216" style="enable-background:new 0 0 216 216;" xml:space="preserve">
<style type="text/css">
	.st0{fill:#C6E0A6;}
	.st1{fill:#DCECC8;}
	.st2{fill:#5AC7DA;}
	.st3{fill:#0BBCD4;}
	.st4{fill:#5E6BB2;}
	.st5{fill:#78909C;}
	.st6{fill:#FDFEFE;}
	.st7{font-family:'HelveticaNeue-UltraLightItalic';}
	.st8{font-size:12px;}
	.st9{font-family:'HelveticaNeue-Thin';}
	.st10{font-size:4px;}
	.st11{font-size:6px;}
</style>
<rect x="-327.2" y="-248.9" class="st0" width="132.5" height="132.5"/>
<rect x="-327.2" y="-116.3" class="st1" width="132.5" height="132.5"/>
<rect x="-327.2" y="16.2" class="st2" width="132.5" height="132.5"/>
<rect x="-327.2" y="148.7" class="st3" width="132.5" height="132.5"/>
<rect x="-327.2" y="281.2" class="st4" width="132.5" height="132.5"/>
<rect x="-327.2" y="413.8" class="st5" width="132.5" height="132.5"/>
<rect x="0.1" y="0.1" class="st2" width="216" height="216"/>
<rect x="3.5" y="7" class="st4" width="167.9" height="39.3"/>
<rect x="8.4" y="70.2" class="st1" width="90" height="135.9"/>
<rect x="121.8" y="70.5" class="st0" width="65.8" height="135.9"/>
<g>
	<rect x="181.4" y="7.8" class="st6" width="1.7" height="37.3"/>
	
		<rect x="181.5" y="2.1" transform="matrix(-1.836970e-16 1 -1 -1.836970e-16 189.2895 -174.9848)" class="st6" width="1.3" height="10.1"/>
	
		<rect x="181.5" y="40.1" transform="matrix(-1.836970e-16 1 -1 -1.836970e-16 227.2599 -137.0144)" class="st6" width="1.3" height="10.1"/>
</g>
<rect x="177.1" y="19.7" class="st2" width="10.1" height="13"/>
<rect x="86.9" y="-29.4" transform="matrix(-1.836970e-16 1 -1 -1.836970e-16 141.8198 -33.6662)" class="st6" width="1.7" height="167.1"/>
<rect x="170.1" y="49.1" transform="matrix(-1 -4.841438e-03 4.841438e-03 -1 341.1416 108.9795)" class="st6" width="1.3" height="9.9"/>
<rect x="3.3" y="48.7" transform="matrix(-1 -1.224647e-16 1.224647e-16 -1 7.9133 107.2599)" class="st6" width="1.3" height="9.9"/>
<rect x="80.5" y="47.6" transform="matrix(6.123234e-17 -1 1 6.123234e-17 31.4254 139.5791)" class="st2" width="10.1" height="13"/>
<rect x="52.3" y="93.2" transform="matrix(3.463867e-05 1 -1 3.463867e-05 190.3296 84.0203)" class="st6" width="1.7" height="88"/>
<rect x="97.2" y="132.1" transform="matrix(-1 3.463867e-05 -3.463867e-05 -1 195.6234 274.3531)" class="st6" width="1.3" height="10.1"/>
<rect x="8.5" y="132" transform="matrix(-1 3.463867e-05 -3.463867e-05 -1 18.2859 274.1502)" class="st6" width="1.3" height="10.1"/>
<rect x="153.2" y="105.3" transform="matrix(-2.146074e-03 1 -1 -2.146074e-03 291.5659 -16.5359)" class="st6" width="1.7" height="63.7"/>
<rect x="185.9" y="132.1" transform="matrix(-1 -2.146054e-03 2.146054e-03 -1 372.7658 274.7583)" class="st6" width="1.3" height="10.1"/>
<rect x="121.5" y="132" transform="matrix(-1 -2.146054e-03 2.146054e-03 -1 244.0657 274.3217)" class="st6" width="1.3" height="10.1"/>
<rect x="47.1" y="131.5" transform="matrix(6.123234e-17 -1 1 6.123234e-17 -85.787 190.1691)" class="st1" width="10.1" height="13"/>
<rect x="149.3" y="130.7" transform="matrix(6.123234e-17 -1 1 6.123234e-17 17.152 291.5583)" class="st0" width="10.1" height="13"/>
<text transform="matrix(1 0 0 1 69.0262 21.2348)" class="st1 st7 st8">Banner</text>
<rect x="86.9" y="-56.9" transform="matrix(-1.836970e-16 1 -1 -1.836970e-16 114.3343 -61.062)" class="st6" width="1.7" height="167.1"/>
<rect x="170.2" y="21.7" transform="matrix(-1 -4.841438e-03 4.841438e-03 -1 341.5401 54.0991)" class="st6" width="1.3" height="9.9"/>
<rect x="3.3" y="21.2" transform="matrix(-1 -1.224647e-16 1.224647e-16 -1 7.8235 52.3785)" class="st6" width="1.3" height="9.9"/>
<rect x="80.4" y="20.2" transform="matrix(6.123234e-17 -1 1 6.123234e-17 58.8212 112.0935)" class="st4" width="10.1" height="13"/>
<text transform="matrix(1 0 0 1 80.5723 27.835)" class="st1 st9 st10">55em</text>
<text transform="matrix(1 0 0 1 177.468 27.8351)" class="st1 st9 st11">5em</text>
<text transform="matrix(1 0 0 1 80.5723 55.4979)" class="st1 st9 st10">55em</text>
<text transform="matrix(1 0 0 1 33.6844 130.235)" class="st4 st7 st8">Content</text>
<text transform="matrix(1 0 0 1 49.1465 138.7994)" class="st4 st9 st10">65%</text>
<text transform="matrix(1 0 0 1 141.5436 130.235)" class="st4 st7 st8">Menu</text>
<text transform="matrix(1 0 0 1 151.2332 138.1607)" class="st4 st9 st10">30%</text>
</svg>
